<svg id="Layer_1" data-name="Layer 1" xmlns="http://www.w3.org/2000/svg" viewBox="0 0 800 800"><defs><style>.cls-1{fill:#fff;}</style></defs><rect x="-44.5" y="-28" width="888" height="865"/><path class="cls-1" d="M110.68,280H131V259.56h17.13V280h20.42v17.14H148.13v20.31H131V297.12H110.68Z"/><path class="cls-1" d="M314.23,485.79h18.58v17.43H314.23Z"/><path class="cls-1" d="M352.72,102l14.36,14.36,14.45-14.44L393.64,114,379.2,128.45l14.44,14.44L381.53,155l-14.45-14.44-14.36,14.37L340.6,142.81,355,128.45,340.6,114.08Z"/><path class="cls-1" d="M171.35,603.37l9.27,9.26,9.31-9.31,7.81,7.81-9.31,9.32,9.31,9.31-7.81,7.81-9.31-9.31-9.27,9.26-7.81-7.81,9.26-9.26-9.26-9.27Z"/><path class="cls-1" d="M672.62,671.18l9.27,9.26,9.31-9.31,7.81,7.81-9.31,9.31,9.31,9.32-7.81,7.81-9.31-9.31-9.27,9.26-7.81-7.81,9.26-9.27L664.81,679Z"/><path class="cls-1" d="M527.62,205.54H546.2V223H527.62Z"/><path class="cls-1" d="M709.7,485.41h18.59v17.43H709.7Z"/><path class="cls-1" d="M518.12,594.14h9.38v8.8h-9.38Z"/><path class="cls-1" d="M83.49,67.44h13V54.38h11V67.44H120.5v11H107.44v13h-11v-13h-13Z"/><path class="cls-1" d="M335.8,294.55h9.38v8.79H335.8Z"/><path class="cls-1" d="M46.48,529.59h9.38v8.8H46.48Z"/><path class="cls-1" d="M384.53,679.39h18.58v17.43H384.53Z"/><path class="cls-1" d="M56.22,732.21H74.81v17.43H56.22Z"/><path class="cls-1" d="M617,361.48h13V348.42h11v13.06H654v11H641v13H630v-13H617Z"/><path class="cls-1" d="M680.58,74.41H700.9V54H718V74.41h20.42V91.54H718v20.32H700.9V91.54H680.58Z"/><path class="cls-1" d="M50.69,183.09h9.38v8.79H50.69Z"/><path class="cls-1" d="M491.54,424.25l9.26,9.26,9.31-9.31,7.82,7.81-9.32,9.32,9.31,9.31-7.81,7.81-9.31-9.31-9.26,9.26-7.82-7.81,9.27-9.26-9.27-9.27Z"/></svg>