<svg id="Layer_1" data-name="Layer 1" xmlns="http://www.w3.org/2000/svg" xmlns:xlink="http://www.w3.org/1999/xlink" viewBox="0 0 800 800"><defs><style>.cls-1{fill:url(#linear-gradient);}.cls-2{fill:#fff;}</style><linearGradient id="linear-gradient" x1="21.11" y1="400.27" x2="778.01" y2="400.27" gradientUnits="userSpaceOnUse"><stop offset="0" stop-color="#2b97b0"/><stop offset="0.21" stop-color="#86cfa6"/><stop offset="0.51" stop-color="#ff0"/><stop offset="0.88" stop-color="#75c4a8"/><stop offset="1" stop-color="#0080b4"/></linearGradient></defs><rect x="-864.5" y="-28" width="1717" height="865"/><path class="cls-1" d="M590.25,660.54c-43.22,0-81.56-13.59-114-40.38a577.61,577.61,0,0,1-90.38-94.6l-.82-1.08-.79,1.11c-26.8,37.67-55.27,70-84.59,95.94s-62.68,39-99.5,39a153.41,153.41,0,0,1-70.33-16.81c-21.94-11.16-41.1-27.46-57-48.45S44.27,548.2,35,517.76,21.11,451.92,21.11,412.45A405.41,405.41,0,0,1,34.56,307.12c8.93-33.14,21.85-62.42,38.4-87s36.51-44.29,59.41-58.6S181,140,208.88,140c42.56,0,80.91,13.82,114,41.06a522.65,522.65,0,0,1,89.4,95.26l.84,1.15.8-1.18a604.91,604.91,0,0,1,39.9-52.71,344.67,344.67,0,0,1,43.68-43.19,203.54,203.54,0,0,1,47.93-29.64A134,134,0,0,1,598.92,140c23.47,0,46.31,6.11,67.9,18.15s40.75,29.49,57,51.83,29.45,49.81,39.34,81.61S778,359.53,778,398.92c0,36.69-4.68,71.44-13.92,103.28s-22.32,59.71-38.86,82.95S688.7,627,665.83,640.37A147.45,147.45,0,0,1,590.25,660.54ZM194.43,253.71c23.43,0,46.4,8.14,68.27,24.18S306.59,314.18,328,338s43,50.26,64,78.45c21.2,28.44,42.93,54.88,64.59,78.59s44.3,44.13,67.1,60.38S570.88,580,596,580c18.73,0,34.46-3.69,46.74-11s22.05-16,29.16-25.94c8.37-9.07,15.23-21.48,20.39-36.87l-1.85-.75C686.7,513.38,680,521,670.55,528.08c-7,6.27-16.16,11.67-27.21,16.11s-25,6.7-41.53,6.7c-24.7,0-48.32-8.13-70.19-24.17-22-16.16-43.85-36.38-64.85-60.1a942,942,0,0,1-62.06-78.44,888.18,888.18,0,0,0-62.66-78.6c-21.53-23.91-44.11-44.22-67.11-60.39-23.17-16.29-48.32-24.55-74.73-24.55-18.07,0-33.32,3.92-45.32,11.67a135,135,0,0,0-29.59,25.23c-9.7,12.74-16.88,25.12-21.37,36.84l1.8.86a74.87,74.87,0,0,1,20-22.72c7-5.33,16.13-10.53,27.26-15.45S178,253.71,194.43,253.71Zm-1.92,87.35c-17.52,0-33.79,7.39-48.39,21.95s-22,35.31-22,61.63,7.38,47.5,21.93,63,33.44,23.32,56.11,23.32c20.06,0,39.4-8.05,57.48-23.94,17.91-15.72,36.11-36,54.07-60.39l.46-.62-.48-.6c-18.6-23.43-37.6-43.52-56.47-59.7C236.23,349.34,215.11,341.06,192.51,341.06Zm406.41-51.44c-20,0-39.39,8.05-57.48,23.94s-36.45,36.07-55,60.38l-.46.61.46.61c18.62,24.36,37.8,44.68,57,60.4,19.35,15.87,40.63,23.92,63.23,23.92,17.54,0,33.81-7.38,48.38-22s22-35.28,22-61.63c0-28.12-7.39-49.76-22-64.33S621.54,289.62,598.92,289.62Z"/><path class="cls-2" d="M598.92,141c23.29,0,46,6.06,67.41,18s40.52,29.33,56.65,51.55,29.34,49.62,39.2,81.32S777,359.63,777,398.92c0,36.6-4.67,71.25-13.88,103s-22.25,59.51-38.72,82.65-36.34,41.62-59.09,54.94a146.52,146.52,0,0,1-75.07,20,181.39,181.39,0,0,1-60.73-10,173.61,173.61,0,0,1-52.6-30.11A576.82,576.82,0,0,1,386.71,525l-1.65-2.15L383.49,525c-26.76,37.61-55.18,69.84-84.45,95.78a156.83,156.83,0,0,1-46.6,29.08,142.44,142.44,0,0,1-52.23,9.67,152.42,152.42,0,0,1-69.88-16.7c-21.8-11.1-40.84-27.3-56.61-48.16S45.19,547.8,36,517.46s-13.88-65.64-13.88-105A404.33,404.33,0,0,1,35.53,307.38c8.9-33,21.77-62.21,38.26-86.72s36.33-44.07,59.11-58.3,48.26-21.36,76-21.36a177,177,0,0,1,60.23,10.21,179,179,0,0,1,53.1,30.62,522,522,0,0,1,89.22,95.08l1.68,2.29,1.6-2.35a604.83,604.83,0,0,1,39.83-52.62,344.11,344.11,0,0,1,43.56-43.07,202.3,202.3,0,0,1,47.68-29.49A133,133,0,0,1,598.92,141M106.6,299.73a74,74,0,0,1,19.7-22.42c6.9-5.28,16-10.44,27.05-15.32s24.77-7.28,41.08-7.28c23.21,0,46,8.07,67.68,24,21.86,16,43.79,36.21,65.19,60s42.93,50.21,63.91,78.37c21.22,28.47,43,54.94,64.66,78.67s44.4,44.24,67.25,60.53C546.14,572.64,570.67,581,596,581c18.91,0,34.81-3.73,47.25-11.1s22.24-16.11,29.43-26.18c8.45-9.17,15.37-21.68,20.56-37.18L689.56,505c-3.69,7.79-10.29,15.29-19.61,22.27l-.07.05-.06,0c-6.87,6.15-15.91,11.49-26.86,15.88s-24.77,6.63-41.15,6.63c-24.49,0-47.9-8.07-69.6-24-22-16.11-43.74-36.29-64.69-60a938,938,0,0,1-62-78.34,887.1,887.1,0,0,0-62.73-78.7c-21.58-24-44.21-44.33-67.27-60.54-23.35-16.41-48.69-24.73-75.31-24.73-18.27,0-33.69,4-45.86,11.83a135.55,135.55,0,0,0-29.81,25.42l0,0,0,.05c-9.72,12.77-16.94,25.24-21.46,37l3.6,1.7m500,160.75c17.81,0,34.33-7.48,49.09-22.24S678,402.53,678,375.9c0-28.39-7.48-50.28-22.25-65s-33.89-22.24-56.79-22.24c-20.3,0-39.87,8.14-58.14,24.19-18,15.79-36.55,36.16-55.17,60.53l-.93,1.21.93,1.21c18.67,24.43,37.89,44.8,57.14,60.58,19.54,16,41,24.14,63.87,24.14M200.21,511.92c20.32,0,39.88-8.13,58.14-24.18,18-15.78,36.21-36.15,54.22-60.56l.91-1.23-1-1.2c-18.64-23.48-37.68-43.61-56.6-59.84-19.23-16.49-40.56-24.85-63.41-24.85-17.79,0-34.31,7.48-49.09,22.25s-22.25,35.74-22.25,62.33,7.47,48,22.2,63.64,33.89,23.64,56.84,23.64M598.92,139A134.5,134.5,0,0,0,545,149.83a203.63,203.63,0,0,0-48.16,29.78A345.36,345.36,0,0,0,453,222.93a606.51,606.51,0,0,0-40,52.8,521.9,521.9,0,0,0-89.57-95.44Q273.4,139,208.88,139q-42.39,0-77,21.66T72.13,219.55q-25.06,37.24-38.54,87.31T20.11,412.45q0,59.6,14,105.6t38.05,77.84q24,31.82,57.29,48.73a153.73,153.73,0,0,0,70.79,16.92q55.85,0,100.16-39.26t84.75-96.11a576.4,576.4,0,0,0,90.53,94.76q49.11,40.61,114.6,40.61,41.4,0,76.08-20.3T726,585.73q25.05-35.19,39-83.25t14-103.56q0-59.57-14.92-107.63T724.6,209.4Q700,175.58,667.3,157.28T598.92,139Zm-494,159.74q6.72-17.58,21.19-36.55a133.26,133.26,0,0,1,29.37-25q17.81-11.49,44.78-11.51,39.48,0,74.16,24.37t66.93,60.24a881.47,881.47,0,0,1,62.59,78.51A937.94,937.94,0,0,0,466,467.28q31.77,35.88,65,60.24t70.78,24.37q25,0,41.9-6.77t27.44-16.24q14.45-10.83,20.22-23-7.71,23-20.22,36.55-10.6,14.91-28.89,25.72T596,579q-37.56,0-71.74-24.36t-66.94-60.24q-32.76-35.87-64.53-78.52t-64-78.52q-32.28-35.85-65.49-60.24t-68.86-24.37q-25.05,0-41.89,7.45t-27.45,15.57a75.35,75.35,0,0,0-20.22,23ZM606.62,458.48q-33.71,0-62.6-23.69T487.2,374.55q27.93-36.56,54.9-60.24t56.82-23.69q33.69,0,55.38,21.66T676,375.9q0,39.28-21.66,60.92t-47.68,21.66ZM200.21,509.92q-33.72,0-55.38-23t-21.66-62.27q0-39.25,21.66-60.92t47.68-21.66q33.69,0,62.11,24.37T311,426Q284,462.55,257,486.23t-56.82,23.69Z"/></svg>